<svg width="84" height="68" viewBox="0 0 84 68" fill="none" xmlns="http://www.w3.org/2000/svg">
<g clip-path="url(#clip0_1270_6759)">
<path d="M4.26994 9.37677C5.96319 11.5179 7.80368 13.7329 9.71779 16.0217L1.98773 32.7818L16.7853 24.3648C19.5092 27.5396 22.6749 31.3051 26.2822 35.7351L22.454 21.2638L31.6565 16.4647L20.2454 12.2562L17.0798 0L12.8834 9.30293L0 4.35614L4.26994 9.37677Z" fill="#FECF48"/>
<path d="M62.7239 21.19C62.0614 24.8816 61.3988 28.7948 60.7362 32.9294L36.2945 39.9435L58.3804 47.8436C57.5706 53.5287 56.4663 60.2475 55.1411 68L66.8466 50.9446L80.0982 56.1129L74.2086 40.3865L84.0736 26.1368L70.6012 30.1237L64.0491 12.1824L62.7239 21.19Z" fill="#FECF48"/>
</g>
<defs>
<clipPath id="clip0_1270_6759">
<rect width="84" height="68" fill="white"/>
</clipPath>
</defs>
</svg>
